<?xml version="1.0" standalone="no"?>
<!DOCTYPE svg PUBLIC "-//W3C//DTD SVG 20010904//EN"
 "http://www.w3.org/TR/2001/REC-SVG-20010904/DTD/svg10.dtd">
<svg version="1.0" xmlns="http://www.w3.org/2000/svg"
 width="128.000000pt" height="128.000000pt" viewBox="0 0 128.000000 128.000000"
 preserveAspectRatio="xMidYMid meet">
<metadata>
Created by potrace 1.13, written by Peter Selinger 2001-2015
</metadata>
<g transform="translate(0.000000,128.000000) scale(0.100000,-0.100000)"
fill="#000000" stroke="none">
<path d="M625 1199 c6 -9 3 -11 -9 -6 -11 5 -15 3 -10 -5 5 -7 2 -9 -8 -5 -9
3 -24 -1 -35 -9 -17 -14 -16 -14 7 -4 24 11 24 10 5 -5 -11 -8 -25 -13 -33
-10 -7 2 -10 0 -7 -5 8 -12 -92 -63 -107 -54 -7 4 -8 3 -4 -4 8 -14 -50 -46
-66 -36 -7 5 -8 3 -3 -6 6 -10 4 -12 -9 -7 -10 4 -15 3 -11 -3 8 -12 -52 -43
-67 -34 -7 4 -8 3 -4 -4 8 -14 -70 -56 -86 -46 -7 5 -8 3 -4 -5 5 -8 2 -11 -9
-9 -16 3 -18 -6 -16 -80 2 -61 -1 -82 -9 -77 -6 4 -9 13 -6 21 3 7 0 16 -6 20
-7 5 -8 2 -3 -7 8 -12 6 -12 -8 0 -20 16 -23 36 -4 25 7 -4 9 -3 4 2 -5 5 -14
9 -20 9 -7 0 -11 8 -11 18 1 9 -3 14 -9 10 -6 -4 -8 0 -4 10 4 12 2 14 -10 10
-13 -5 -15 -2 -10 11 5 11 3 15 -5 10 -8 -5 -9 -2 -5 9 6 16 -6 30 -31 33 -10
2 -12 -86 -10 -427 2 -280 6 -428 13 -427 5 2 9 6 8 10 -4 10 63 49 78 46 7
-2 13 6 14 17 0 13 6 20 17 19 10 -1 15 2 12 7 -8 14 37 48 64 49 13 0 21 4
17 10 -9 14 49 40 90 40 20 0 66 4 103 9 97 14 216 20 201 10 -9 -5 -4 -7 14
-5 16 1 40 15 55 31 15 15 21 25 15 21 -19 -11 -16 9 4 25 15 12 16 12 8 -1
-5 -9 0 -8 13 4 25 21 31 36 7 16 -27 -22 -16 6 12 31 21 18 24 19 13 4 -11
-15 -8 -14 13 4 28 25 38 43 12 21 -27 -22 -16 6 12 31 20 18 24 19 13 4 -14
-18 -14 -19 2 -7 9 8 14 20 11 28 -3 8 -1 14 5 14 13 0 36 -86 27 -101 -6 -8
-4 -10 5 -4 10 6 12 3 8 -13 -4 -14 -2 -20 5 -15 6 4 8 -2 5 -15 -4 -12 -2
-20 2 -17 9 6 23 -44 18 -64 -2 -8 31 -12 117 -14 l120 -2 -2 320 c-2 214 -6
319 -13 317 -15 -3 -71 28 -66 37 3 4 -5 7 -17 7 -13 -1 -21 4 -19 12 1 8 -2
11 -7 7 -15 -9 -73 24 -65 37 4 7 3 8 -4 4 -15 -9 -95 32 -87 44 3 5 0 7 -7 5
-8 -3 -22 2 -33 11 -11 8 -14 12 -6 8 9 -5 12 -3 7 5 -4 6 -11 9 -16 6 -13 -8
-112 44 -105 55 4 6 -1 7 -11 3 -11 -4 -15 -3 -10 5 3 6 1 14 -5 18 -8 4 -9 3
-5 -4 9 -15 1 -15 -26 -1 -16 9 -19 8 -13 -2z"/>
<path d="M297 151 l1 -94 30 -1 c17 -1 30 1 30 4 0 3 0 16 1 29 1 29 14 20 16
-11 1 -17 8 -21 34 -22 18 -1 35 3 38 8 4 5 1 6 -5 3 -6 -5 -6 2 1 17 12 24
12 24 20 5 4 -12 5 -24 3 -27 -2 -4 9 -7 24 -7 15 0 26 3 23 8 -5 9 6 8 32 -2
24 -10 46 5 38 26 -4 11 1 14 23 11 19 -2 29 -9 29 -20 0 -9 4 -20 9 -25 5 -4
6 -3 2 5 -9 14 -5 15 27 3 20 -8 24 -7 23 7 0 9 -10 20 -21 23 -11 3 -20 14
-19 25 0 16 -7 19 -51 19 -43 0 -51 -3 -48 -16 3 -9 -1 -20 -8 -25 -9 -5 -11
-2 -6 9 4 11 2 14 -9 10 -14 -5 -15 4 -12 59 3 66 -4 76 -39 55 -6 -4 -23 -3
-38 3 -14 5 -24 6 -21 1 3 -5 3 -23 -1 -41 -5 -27 -8 -29 -15 -16 -5 10 -7 24
-4 32 4 10 2 12 -6 8 -7 -5 -9 -1 -6 12 4 14 0 20 -12 20 -16 0 -17 -4 -3 -46
8 -25 17 -53 20 -63 9 -28 25 -15 41 32 8 23 16 40 18 38 7 -7 -32 -111 -43
-114 -6 -2 -21 25 -33 61 -12 37 -26 66 -30 66 -5 0 -11 -30 -13 -67 l-3 -68
-2 82 c-2 71 -4 82 -19 80 -16 -1 -18 -12 -16 -96z"/>
</g>
</svg>
